<svg width="512" height="512" viewBox="0 0 512 512" fill="none" xmlns="http://www.w3.org/2000/svg">
<rect width="512" height="512" rx="90" fill="#29A383"/>
<path d="M198.498 282.043L180.777 381.966L216.433 387.731L213.871 403.317H80L82.5621 387.731L117.578 381.966L160.493 138.138L124.837 132.586L127.613 117H241.841C279.134 117 306.748 122.907 324.683 134.721C342.618 146.536 351.585 164.684 351.585 189.166C351.585 211.372 345.536 229.876 333.437 244.679C321.48 259.483 304.115 269.945 281.34 276.065L324.256 381.966L355.642 387.731L353.08 403.317H267.676L223.265 282.043H198.498ZM214.298 258.557C237.642 258.557 255.932 252.793 269.17 241.263C282.408 229.591 289.027 213.364 289.027 192.583C289.027 174.078 284.685 160.77 276.002 152.656C267.462 144.543 254.865 140.486 238.211 140.486H223.479L202.555 258.557H214.298Z" fill="#208368"/>
<path d="M460.475 380.685C460.475 403.033 453.429 421.893 439.338 437.265C425.246 452.78 404.749 464.025 377.847 471V451.357C385.818 449.222 392.721 445.948 398.557 441.536C404.393 437.265 408.877 432.426 412.008 427.017C415.14 421.608 416.706 416.484 416.706 411.644C416.706 408.513 415.638 405.737 413.503 403.317C411.51 401.04 407.596 398.051 401.76 394.35C391.654 388.229 386.601 379.262 386.601 367.448C386.601 358.195 389.803 351.15 396.209 346.31C402.614 341.47 410.727 339.051 420.549 339.051C432.505 339.051 442.113 342.894 449.373 350.58C456.774 358.267 460.475 368.302 460.475 380.685ZM453.856 269.233C443.893 269.233 435.495 265.817 428.662 258.984C421.972 252.152 418.627 243.754 418.627 233.79C418.627 223.826 421.901 215.428 428.449 208.596C435.139 201.764 443.608 198.347 453.856 198.347C463.963 198.347 472.361 201.835 479.051 208.809C485.883 215.642 489.299 223.969 489.299 233.79C489.299 243.612 485.883 252.01 479.051 258.984C472.218 265.817 463.82 269.233 453.856 269.233Z" fill="#208368"/>
<path d="M286.72 278.691C308.025 272.263 324.727 261.823 336.54 247.203C349.31 231.574 355.585 212.134 355.585 189.166C355.585 163.559 346.114 144.049 326.883 131.381C307.971 118.923 279.408 113 241.841 113H127.613H124.262L123.675 116.299L120.899 131.885L120.182 135.91L124.222 136.539L155.847 141.462L114.13 378.48L81.9123 383.784L79.0806 384.25L78.6151 387.082L76.053 402.668L75.2888 407.317H80H213.871H217.267L217.818 403.966L220.38 388.38L221.031 384.422L217.071 383.782L185.425 378.666L201.851 286.043H220.47L263.919 404.693L264.881 407.317H267.676H353.08H356.476L357.027 403.966L359.589 388.38L360.226 384.506L356.364 383.797L327.138 378.429L286.72 278.691ZM273.247 155.556L273.259 155.568L273.271 155.579C280.788 162.603 285.027 174.579 285.027 192.583C285.027 212.435 278.749 227.479 266.534 238.254C254.237 248.961 236.993 254.557 214.298 254.557H207.326L226.832 144.486H238.211C254.265 144.486 265.71 148.396 273.247 155.556ZM373.847 471V476.169L378.851 474.872C406.264 467.765 427.535 456.208 442.296 439.958C457.108 423.794 464.475 403.95 464.475 380.685C464.475 367.453 460.493 356.369 452.268 347.82C444.152 339.234 433.441 335.051 420.549 335.051C410.056 335.051 401.041 337.646 393.797 343.119C386.23 348.836 382.601 357.159 382.601 367.448C382.601 380.647 388.372 390.904 399.651 397.749C405.45 401.428 408.916 404.15 410.493 405.951L410.498 405.958L410.504 405.964C412.016 407.677 412.706 409.519 412.706 411.644C412.706 415.603 411.426 420.039 408.547 425.013C405.733 429.872 401.654 434.314 396.195 438.307L396.17 438.326L396.145 438.345C390.77 442.409 384.348 445.475 376.812 447.493L373.847 448.287V451.357V471ZM425.804 261.783L425.819 261.798L425.834 261.813C433.442 269.421 442.869 273.233 453.856 273.233C464.844 273.233 474.271 269.421 481.879 261.813L481.894 261.798L481.908 261.783C489.478 254.056 493.299 244.651 493.299 233.79C493.299 222.942 489.486 213.602 481.909 206.011C474.431 198.23 464.983 194.347 453.856 194.347C442.618 194.347 433.091 198.137 425.591 205.797L425.576 205.813L425.561 205.828C418.259 213.448 414.627 222.855 414.627 233.79C414.627 244.751 418.349 254.169 425.804 261.783Z" stroke="#208368" stroke-opacity="0.5" stroke-width="8"/>
<path d="M198.498 282.043L180.777 381.966L216.433 387.731L213.871 403.317H80L82.5621 387.731L117.578 381.966L160.493 138.138L124.837 132.586L127.613 117H241.841C279.134 117 306.748 122.907 324.683 134.721C342.618 146.536 351.585 164.684 351.585 189.166C351.585 211.372 345.536 229.876 333.437 244.679C321.48 259.483 304.115 269.945 281.34 276.065L324.256 381.966L355.642 387.731L353.08 403.317H267.676L223.265 282.043H198.498ZM214.298 258.557C237.642 258.557 255.932 252.793 269.17 241.263C282.408 229.591 289.027 213.364 289.027 192.583C289.027 174.078 284.685 160.77 276.002 152.656C267.462 144.543 254.865 140.486 238.211 140.486H223.479L202.555 258.557H214.298Z" fill="white"/>
<path d="M460.475 380.685C460.475 403.033 453.429 421.893 439.338 437.265C425.246 452.78 404.749 464.025 377.847 471V451.357C385.818 449.222 392.721 445.948 398.557 441.536C404.393 437.265 408.877 432.426 412.008 427.017C415.14 421.608 416.706 416.484 416.706 411.644C416.706 408.513 415.638 405.737 413.503 403.317C411.51 401.04 407.596 398.051 401.76 394.35C391.654 388.229 386.601 379.262 386.601 367.448C386.601 358.195 389.803 351.15 396.209 346.31C402.614 341.47 410.727 339.051 420.549 339.051C432.505 339.051 442.113 342.894 449.373 350.58C456.774 358.267 460.475 368.302 460.475 380.685ZM453.856 269.233C443.893 269.233 435.495 265.817 428.662 258.984C421.972 252.152 418.627 243.754 418.627 233.79C418.627 223.826 421.901 215.428 428.449 208.596C435.139 201.764 443.608 198.347 453.856 198.347C463.963 198.347 472.361 201.835 479.051 208.809C485.883 215.642 489.299 223.969 489.299 233.79C489.299 243.612 485.883 252.01 479.051 258.984C472.218 265.817 463.82 269.233 453.856 269.233Z" fill="white"/>
</svg>
